<svg id="Layer_1" data-name="Layer 1" xmlns="http://www.w3.org/2000/svg" viewBox="0 0 645.84 117.24"><title>mojave-type-rbg-black</title><path d="M120.74,95.4v91.92h-17.4V145.2l-28.8,40.92H74.3L46.58,147.84v39.48H29.78V95.4h.12l44.76,63.48L120.5,95.4Z" transform="translate(-29.78 -95.4)"/><path d="M140.48,146a26.64,26.64,0,0,1,10.68-10,32.9,32.9,0,0,1,15.66-3.66A31.5,31.5,0,0,1,182.24,136a25.77,25.77,0,0,1,10.26,10,28.72,28.72,0,0,1,3.6,14.4A29.39,29.39,0,0,1,192.5,175a25.55,25.55,0,0,1-10.26,10.14,32,32,0,0,1-15.66,3.66A34,34,0,0,1,151,185.34a25.21,25.21,0,0,1-10.56-9.78,29.06,29.06,0,0,1-3.78-15.12A27.64,27.64,0,0,1,140.48,146Zm16.74,24.9a11.56,11.56,0,0,0,9.12,4.14,11.72,11.72,0,0,0,9.3-4.08,17.16,17.16,0,0,0,0-20.88,11.72,11.72,0,0,0-9.3-4.08,11.56,11.56,0,0,0-9.12,4.14,16.76,16.76,0,0,0,0,20.76Z" transform="translate(-29.78 -95.4)"/><path d="M203.06,202.2q7.56-5.52,7.56-15.84V134.88h16.8v52.44q0,9.6-3.42,15.72t-11.22,9.6Zm9.78-92a9.49,9.49,0,0,1,6.42-2.46,9.13,9.13,0,0,1,6.24,2.46,7.8,7.8,0,0,1,2.76,6.06,7.62,7.62,0,0,1-2.76,6,9.26,9.26,0,0,1-6.24,2.4,9.63,9.63,0,0,1-6.42-2.4,7.56,7.56,0,0,1-2.82-6A7.73,7.73,0,0,1,212.84,110.22Z" transform="translate(-29.78 -95.4)"/><path d="M301.1,134.88v52.44H284.3v-6.48q-7.56,7.92-17.52,7.92-11.64,0-18.9-7t-7.26-20.64A31.4,31.4,0,0,1,244.16,146a26.23,26.23,0,0,1,9.42-10.14,23.71,23.71,0,0,1,12.6-3.6q7,0,11,2.1a22.54,22.54,0,0,1,7.2,5.94l1.08-5.4Zm-16.8,32.28V154.32a12.24,12.24,0,0,0-5-6.12,15.06,15.06,0,0,0-8.34-2.28,12.56,12.56,0,0,0-9.42,4.08,14.33,14.33,0,0,0-3.9,10.32,15.06,15.06,0,0,0,1.92,7.5,14.24,14.24,0,0,0,5.1,5.34,13.11,13.11,0,0,0,6.9,1.92Q280.34,175.08,284.3,167.16Z" transform="translate(-29.78 -95.4)"/><path d="M372.62,134.88,342.86,188.4h-.48l-31.44-53.52h19.92l12.24,25,10.8-25Z" transform="translate(-29.78 -95.4)"/><path d="M417.26,171l7.44,12.48a45.85,45.85,0,0,1-9.12,3.84,31.76,31.76,0,0,1-9.12,1.44,34.45,34.45,0,0,1-16.14-3.54,24,24,0,0,1-10.26-10,30.35,30.35,0,0,1-3.48-14.7,26.35,26.35,0,0,1,4-14.16,28.86,28.86,0,0,1,11-10.26,31.42,31.42,0,0,1,15.24-3.78q11.28,0,18.54,6.6t9.42,18.84L396.38,170a13.09,13.09,0,0,0,10.44,4.44A19.32,19.32,0,0,0,417.26,171ZM396.5,149.28q-3.36,3.84-3.36,10.32v1.08l23-7.8q-2.52-7.44-10.68-7.44A11.36,11.36,0,0,0,396.5,149.28Z" transform="translate(-29.78 -95.4)"/><path d="M563.06,187.32h-17.4V151.44H506.18v35.88h-17.4V99h17.4v35.64h39.48V99h17.4Z" transform="translate(-29.78 -95.4)"/><path d="M675.62,187.32H634.7a47.11,47.11,0,0,1-9.24,1,43.75,43.75,0,0,1-22.56-6.06,45.29,45.29,0,0,1-16.38-16.38,44.8,44.8,0,0,1,0-45A45.8,45.8,0,0,1,603,104.22a44,44,0,0,1,45,0,46.76,46.76,0,0,1,16.56,16.62,43.91,43.91,0,0,1,3.78,36.78,46.33,46.33,0,0,1-6.72,12.66h14Zm-73.5-29.94a27.69,27.69,0,0,0,10,10.2,26.65,26.65,0,0,0,14,3.78,25.29,25.29,0,0,0,13.56-3.78,26.75,26.75,0,0,0,9.6-10.2,29.11,29.11,0,0,0,3.48-14.1,28.34,28.34,0,0,0-3.6-14.1A26.92,26.92,0,0,0,639.26,119a27.12,27.12,0,0,0-27.42,0,27.06,27.06,0,0,0-9.78,10.14,28.34,28.34,0,0,0-3.6,14.1A28,28,0,0,0,602.12,157.38Z" transform="translate(-29.78 -95.4)"/></svg>