<svg id="Layer_2" data-name="Layer 2" xmlns="http://www.w3.org/2000/svg" viewBox="0 0 3560.61 649.75"><defs><style>.cls-1{fill:#654073;}.cls-2{fill:#fff;}</style></defs><title>mojave-lockup-rgb-purple</title><g id="logo-type"><path class="cls-1" d="M1424.62,272.5v383h-72.5V480l-120,170.5h-1L1115.62,491V655.5h-70v-383h.5L1232.62,537l191-264.5Z" transform="translate(-176 -168)"/><path class="cls-1" d="M1506.87,483.5q15.75-26.5,44.5-41.75t65.25-15.25q36.5,0,64.25,15.25t42.75,41.75q15,26.5,15,60t-15,60.5a106.47,106.47,0,0,1-42.75,42.25q-27.75,15.24-65.25,15.25-36.49,0-64.75-14.25a105,105,0,0,1-44-40.75q-15.75-26.5-15.75-63Q1491.12,510,1506.87,483.5Zm69.75,103.75q15,17.25,38,17.25,24,0,38.75-17t14.75-43.5q0-26.5-14.75-43.5t-38.75-17q-23,0-38,17.25t-15,43.25Q1561.62,570,1576.62,587.25Z" transform="translate(-176 -168)"/><path class="cls-1" d="M1767.62,717.5q31.5-23,31.5-66V437h70V655.5q0,40-14.25,65.5t-46.75,40Zm40.75-383.25A39.57,39.57,0,0,1,1835.12,324q14.51,0,26,10.25t11.5,25.25a31.76,31.76,0,0,1-11.5,25,38.55,38.55,0,0,1-26,10,40.11,40.11,0,0,1-26.75-10q-11.74-10-11.75-25T1808.37,334.25Z" transform="translate(-176 -168)"/><path class="cls-1" d="M2176.12,437V655.5h-70v-27q-31.5,33-73,33-48.49,0-78.75-29t-30.25-86q0-36,14.75-63.25T1978.12,441a98.79,98.79,0,0,1,52.5-15q29,0,46,8.75a93.9,93.9,0,0,1,30,24.75l4.5-22.5Zm-70,134.5V518a51,51,0,0,0-20.75-25.5q-14.74-9.5-34.75-9.5-23,0-39.25,17t-16.25,43a62.79,62.79,0,0,0,8,31.25,59.32,59.32,0,0,0,21.25,22.25,54.65,54.65,0,0,0,28.75,8Q2089.61,604.5,2106.12,571.5Z" transform="translate(-176 -168)"/><path class="cls-1" d="M2474.12,437l-124,223h-2l-131-223h83l51,104,45-104Z" transform="translate(-176 -168)"/><path class="cls-1" d="M2660.12,587.5l31,52a190.91,190.91,0,0,1-38,16,132.35,132.35,0,0,1-38,6q-39,0-67.25-14.75t-42.75-41.5q-14.51-26.75-14.5-61.25a109.77,109.77,0,0,1,16.75-59,120.17,120.17,0,0,1,45.75-42.75q29-15.75,63.5-15.75,47,0,77.25,27.5t39.25,78.5l-160,51q16,18.5,43.5,18.5Q2637.62,602,2660.12,587.5Zm-86.5-90.5q-14,16-14,43v4.5l96-32.5q-10.5-31-44.5-31Q2587.61,481,2573.62,497Z" transform="translate(-176 -168)"/><path class="cls-1" d="M3267.61,655.5h-72.5V506h-164.5V655.5h-72.5v-368h72.5V436h164.5V287.5h72.5Z" transform="translate(-176 -168)"/><path class="cls-1" d="M3736.61,655.5h-170.5a196.87,196.87,0,0,1-38.5,4q-51,0-94-25.25A188.6,188.6,0,0,1,3365.36,566q-25.26-43-25.25-94a183.09,183.09,0,0,1,25.25-93.5,190.76,190.76,0,0,1,68.5-69.25,183.54,183.54,0,0,1,187.5,0,194.9,194.9,0,0,1,69,69.25,183,183,0,0,1,15.75,153.25,193.09,193.09,0,0,1-28,52.75h58.5ZM3430.36,530.75a115.34,115.34,0,0,0,41.5,42.5Q3498.11,589,3530.11,589a105.41,105.41,0,0,0,56.5-15.75,111.52,111.52,0,0,0,40-42.5Q3641.1,504,3641.11,472a118.07,118.07,0,0,0-15-58.75,112.17,112.17,0,0,0-41-42.25,109.33,109.33,0,0,0-57-15.5q-31.5,0-57.25,15.5a112.73,112.73,0,0,0-40.75,42.25,118.07,118.07,0,0,0-15,58.75A116.52,116.52,0,0,0,3430.36,530.75Z" transform="translate(-176 -168)"/></g><g id="logo-mark"><path class="cls-2" d="M501,693c-300,0-300-200-300-300,100,0,300,101,299,199,2-199,301-98,1-399-300,301,1,200,0,400,0-100,200-200,300-200,0,500-435,442-600,300" transform="translate(-176 -168)"/><path class="cls-1" d="M481.83,817.75a459.09,459.09,0,0,1-93.47-9.9C311,791.74,236.79,756.79,184.69,712a25,25,0,1,1,32.62-37.9c45.88,39.49,111.94,70.41,181.24,84.85,37.08,7.72,73.49,10.41,108.2,8,37.16-2.59,71.52-11,102.13-25.06,50.31-23.07,90-61.07,117.91-112.93,29.54-54.83,45.9-125,48.76-208.89-44,6.43-100.5,27.7-149.19,56.92C563.76,514.5,526.29,557.69,526,592.59v.54A25,25,0,0,1,501,618h-.06A26.76,26.76,0,0,1,475,591.75h0c.2-19.44-11.93-42.07-35.08-65.45-27.69-28-70.7-56-118-76.83-33.73-14.87-67.74-25.21-95.71-29.4.88,44.7,5.83,101,33.75,147.57,18.3,30.51,44,53.41,78.47,70C380.22,657.79,434.92,668,501,668a25,25,0,0,1,0,50c-138.79,0-234.32-41.93-283.94-124.64C176,524.92,176,445.53,176,393a25,25,0,0,1,25-25c38.15,0,89.56,13,141.06,35.72l3.05,1.35a82.7,82.7,0,0,1-2-12.92c-1.93-25.77,7.75-54,30.45-88.92C396,268.78,431.86,227,483.29,175.35a25,25,0,0,1,35.42,0c51.61,51.79,87.61,93.72,110.07,128.19,22.77,35,32.46,63.24,30.49,89a81.85,81.85,0,0,1-1.8,12C708.79,381.68,761.17,368,801,368a25,25,0,0,1,25,25c0,251.47-106.74,353.22-196.28,394.29-36.1,16.56-76.31,26.48-119.51,29.49Q496.17,817.75,481.83,817.75ZM501,228.68c-73.91,76.46-110.23,130.15-108,159.75,1.25,16.76,16,28.48,42,47.77,21.41,15.87,47.2,35,65.85,64.1,18.88-29.13,44.83-48.22,66.34-64.05,26.1-19.21,40.93-30.88,42.2-47.52C611.67,359.23,575.22,305.43,501,228.68Z" transform="translate(-176 -168)"/></g></svg>