<svg id="Layer_2" data-name="Layer 2" xmlns="http://www.w3.org/2000/svg" viewBox="0 0 650 649.75"><defs><style>.cls-1{fill:#654073;}</style></defs><title>mojave-mark-rgb-purple</title><path class="cls-1" d="M480.83,824.75a459.09,459.09,0,0,1-93.47-9.9C310,798.74,235.8,763.79,183.69,719a25,25,0,1,1,32.62-37.9c90.19,77.62,265.54,125.61,391.57,67.79,104-47.7,161.35-159.15,166.71-323.14-76.05,3.87-139.5,23.47-184.62,57.2-40.2,30.05-63.07,69.56-64.86,111.75-.06,1.8-.1,3.63-.11,5.48A25,25,0,0,1,500,625h-.06A26.76,26.76,0,0,1,474,598.75h0c.36-34.8-14.85-69.51-42.8-97.76-44.4-44.85-116.94-71.26-206-75.41.8,44.93,5.55,102,33.78,149.06C298.89,641.23,380,675,500,675a25,25,0,0,1,0,50c-138.79,0-234.32-41.93-283.94-124.64C175,531.92,175,452.53,175,400a25,25,0,0,1,25-25c58.33,0,111.2,8.16,157.19,24.26-12.34-20.76-17.16-40.93-14.73-61.54,2.85-24.17,15.71-48.46,39.3-74.25,23.16-25.33,57.3-52.89,104.37-84.27a25,25,0,0,1,27.74,0c47.2,31.47,81.43,59.09,104.65,84.44,23.66,25.84,36.56,50.17,39.42,74.38,2.44,20.59-2.36,40.75-14.66,61.52,45.6-15.89,98.43-24.25,156.6-24.54H800a25,25,0,0,1,25,25c0,251.47-106.73,353.22-196.27,394.29-36.11,16.56-76.32,26.48-119.51,29.49Q495.17,824.75,480.83,824.75ZM500,230.21c-68.29,47.14-104.57,85.25-107.89,113.37-2.63,22.34,15.41,43.06,45.05,75,21.39,23,45.63,49.19,63.06,82.24,17.59-32.7,41.62-58.64,62.82-81.54,29.79-32.15,47.9-53,45.25-75.4C605,315.73,568.55,277.52,500,230.21Z" transform="translate(-175 -175)"/></svg>