<svg id="Layer_2" data-name="Layer 2" xmlns="http://www.w3.org/2000/svg" viewBox="0 0 3561.61 649.75"><title>mojave-lockup-rgb-black</title><path d="M480.83,824.75a459.09,459.09,0,0,1-93.47-9.9C310,798.74,235.79,763.79,183.69,719a25,25,0,1,1,32.62-37.9c90.19,77.62,265.54,125.61,391.57,67.79,104-47.7,161.35-159.15,166.7-323.14-76,3.87-139.49,23.47-184.61,57.2-40.2,30.05-63.07,69.56-64.86,111.75-.06,1.8-.1,3.63-.11,5.48A25,25,0,0,1,500,625h-.06A26.76,26.76,0,0,1,474,598.75h0c.35-34.8-14.85-69.51-42.8-97.76-44.4-44.85-116.94-71.26-206-75.41.8,44.93,5.55,102,33.78,149.06C298.89,641.23,380,675,500,675a25,25,0,0,1,0,50c-138.79,0-234.32-41.93-283.94-124.64C175,531.92,175,452.53,175,400a25,25,0,0,1,25-25c58.33,0,111.2,8.16,157.19,24.26-12.34-20.76-17.17-40.93-14.73-61.54,2.85-24.17,15.7-48.46,39.29-74.25,23.17-25.33,57.31-52.89,104.38-84.27a25,25,0,0,1,27.74,0c47.2,31.47,81.43,59.09,104.65,84.44,23.66,25.84,36.56,50.17,39.42,74.38,2.44,20.59-2.36,40.75-14.66,61.52,45.6-15.89,98.42-24.25,156.59-24.54H800a25,25,0,0,1,25,25c0,251.47-106.74,353.22-196.27,394.29-36.11,16.56-76.32,26.48-119.51,29.49Q495.17,824.75,480.83,824.75ZM500,230.21c-68.29,47.14-104.57,85.25-107.89,113.37-2.63,22.34,15.4,43.06,45.05,75,21.39,23,45.63,49.19,63.06,82.24,17.59-32.7,41.61-58.64,62.82-81.54,29.78-32.15,47.9-53,45.25-75.4C605,315.73,568.55,277.52,500,230.21Z" transform="translate(-175 -175)"/><path d="M1424.62,272.5v383h-72.5V480l-120,170.5h-1L1115.62,491V655.5h-70v-383h.5L1232.62,537l191-264.5Z" transform="translate(-175 -175)"/><path d="M1506.87,483.5q15.75-26.5,44.5-41.75t65.25-15.25q36.5,0,64.25,15.25t42.75,41.75q15,26.5,15,60t-15,60.5a106.47,106.47,0,0,1-42.75,42.25q-27.75,15.24-65.25,15.25-36.49,0-64.75-14.25a105,105,0,0,1-44-40.75q-15.75-26.5-15.75-63Q1491.12,510,1506.87,483.5Zm69.75,103.75q15,17.25,38,17.25,24,0,38.75-17t14.75-43.5q0-26.5-14.75-43.5t-38.75-17q-23,0-38,17.25t-15,43.25Q1561.62,570,1576.62,587.25Z" transform="translate(-175 -175)"/><path d="M1767.62,717.5q31.5-23,31.5-66V437h70V655.5q0,40-14.25,65.5t-46.75,40Zm40.75-383.25A39.57,39.57,0,0,1,1835.12,324q14.51,0,26,10.25t11.5,25.25a31.76,31.76,0,0,1-11.5,25,38.55,38.55,0,0,1-26,10,40.11,40.11,0,0,1-26.75-10q-11.74-10-11.75-25T1808.37,334.25Z" transform="translate(-175 -175)"/><path d="M2176.12,437V655.5h-70v-27q-31.5,33-73,33-48.49,0-78.75-29t-30.25-86q0-36,14.75-63.25T1978.12,441a98.79,98.79,0,0,1,52.5-15q29,0,46,8.75a93.9,93.9,0,0,1,30,24.75l4.5-22.5Zm-70,134.5V518a51,51,0,0,0-20.75-25.5q-14.74-9.5-34.75-9.5-23,0-39.25,17t-16.25,43a62.79,62.79,0,0,0,8,31.25,59.32,59.32,0,0,0,21.25,22.25,54.65,54.65,0,0,0,28.75,8Q2089.61,604.5,2106.12,571.5Z" transform="translate(-175 -175)"/><path d="M2474.12,437l-124,223h-2l-131-223h83l51,104,45-104Z" transform="translate(-175 -175)"/><path d="M2660.12,587.5l31,52a190.91,190.91,0,0,1-38,16,132.35,132.35,0,0,1-38,6q-39,0-67.25-14.75t-42.75-41.5q-14.51-26.75-14.5-61.25a109.77,109.77,0,0,1,16.75-59,120.17,120.17,0,0,1,45.75-42.75q29-15.75,63.5-15.75,47,0,77.25,27.5t39.25,78.5l-160,51q16,18.5,43.5,18.5Q2637.62,602,2660.12,587.5Zm-86.5-90.5q-14,16-14,43v4.5l96-32.5q-10.5-31-44.5-31Q2587.61,481,2573.62,497Z" transform="translate(-175 -175)"/><path d="M3267.61,655.5h-72.5V506h-164.5V655.5h-72.5v-368h72.5V436h164.5V287.5h72.5Z" transform="translate(-175 -175)"/><path d="M3736.61,655.5h-170.5a196.87,196.87,0,0,1-38.5,4q-51,0-94-25.25A188.6,188.6,0,0,1,3365.36,566q-25.26-43-25.25-94a183.09,183.09,0,0,1,25.25-93.5,190.76,190.76,0,0,1,68.5-69.25,183.54,183.54,0,0,1,187.5,0,194.9,194.9,0,0,1,69,69.25,183,183,0,0,1,15.75,153.25,193.09,193.09,0,0,1-28,52.75h58.5ZM3430.36,530.75a115.34,115.34,0,0,0,41.5,42.5Q3498.11,589,3530.11,589a105.41,105.41,0,0,0,56.5-15.75,111.52,111.52,0,0,0,40-42.5Q3641.1,504,3641.11,472a118.07,118.07,0,0,0-15-58.75,112.17,112.17,0,0,0-41-42.25,109.33,109.33,0,0,0-57-15.5q-31.5,0-57.25,15.5a112.73,112.73,0,0,0-40.75,42.25,118.07,118.07,0,0,0-15,58.75A116.52,116.52,0,0,0,3430.36,530.75Z" transform="translate(-175 -175)"/></svg>