<svg id="Layer_3" data-name="Layer 3" xmlns="http://www.w3.org/2000/svg" viewBox="0 0 650 649.75"><title>mojave-mark-rgb-black</title><path d="M480.83,824.75a459.09,459.09,0,0,1-93.47-9.9C310,798.74,235.8,763.79,183.69,719a25,25,0,1,1,32.62-37.9c45.88,39.49,111.94,70.41,181.24,84.85,37.09,7.72,73.49,10.41,108.2,8,37.16-2.59,71.52-11,102.13-25.06,50.31-23.07,90-61.07,117.91-112.93,29.54-54.83,45.9-125,48.76-208.89-43.95,6.43-100.5,27.7-149.19,56.92C562.76,521.5,525.29,564.69,525,599.59v.54A25,25,0,0,1,500,625h-.06A26.76,26.76,0,0,1,474,598.75h0c.2-19.44-11.93-42.07-35.08-65.45-27.68-28-70.7-56-118-76.83-33.73-14.87-67.73-25.21-95.71-29.4.88,44.7,5.83,101,33.75,147.57,18.3,30.51,44,53.41,78.47,70C379.22,664.79,433.92,675,500,675a25,25,0,0,1,0,50c-138.79,0-234.32-41.93-283.94-124.64C175,531.92,175,452.53,175,400a25,25,0,0,1,25-25c38.15,0,89.56,13,141.06,35.72l3.06,1.35a81.52,81.52,0,0,1-2-12.92c-1.92-25.77,7.75-54,30.45-88.92C395,275.78,430.86,234,482.29,182.35a25,25,0,0,1,35.42,0c51.61,51.79,87.62,93.72,110.07,128.19,22.78,35,32.47,63.24,30.5,89a81.83,81.83,0,0,1-1.81,12C707.79,388.68,760.18,375,800,375a25,25,0,0,1,25,25c0,251.47-106.73,353.22-196.27,394.29-36.11,16.56-76.32,26.48-119.51,29.49Q495.17,824.75,480.83,824.75ZM500,235.68c-73.91,76.46-110.23,130.15-108,159.75,1.25,16.76,16,28.48,42,47.77,21.41,15.87,47.2,35,65.85,64.1,18.89-29.13,44.84-48.22,66.35-64.05,26.09-19.21,40.92-30.88,42.19-47.52C610.68,366.23,574.22,312.43,500,235.68Z" transform="translate(-175 -175)"/></svg>